<svg width="23" height="23" viewBox="0 0 23 23" fill="none" xmlns="http://www.w3.org/2000/svg">
<path d="M16.4462 9.19155C16.6031 6.96992 15.7924 4.79494 14.2229 3.22539C12.6533 1.65583 10.486 0.857065 8.28131 1.00715C4.44434 1.27934 1.20264 4.88652 1.20264 8.88459V13.2837C1.20264 15.2255 2.22865 16.2516 4.17046 16.2516H8.56707C12.5677 16.2516 16.1766 13.0192 16.4462 9.19155ZM8.56707 15.4036H4.17046C2.70435 15.4036 2.05059 14.7499 2.05059 13.2837V8.88459C2.05059 5.14344 5.20411 1.80253 8.82061 1.83645C12.655 1.7525 15.9561 5.30625 15.6 9.13219C15.36 12.5325 12.1386 15.4036 8.56622 15.4036H8.56707ZM21.5534 14.7889V18.7963C21.5534 20.365 20.5791 21.3393 19.0096 21.3393H15.0055C12.7178 21.3393 10.4656 20.1318 9.12756 18.1874C8.99528 17.9941 9.04362 17.7304 9.23695 17.5981C9.43028 17.4658 9.69399 17.5133 9.82627 17.7075C11.0075 19.4246 12.9917 20.4913 15.0047 20.4913H19.0087C19.7829 20.4913 20.7046 20.1971 20.7046 18.7963V14.7889C20.7046 12.7758 19.6379 10.7925 17.9208 9.61213C17.7275 9.47985 17.6791 9.21529 17.8114 9.02281C17.9454 8.83032 18.2082 8.78114 18.4007 8.91342C20.3442 10.2498 21.5526 12.5011 21.5526 14.7897L21.5534 14.7889ZM9.68212 8.62003C9.68212 9.0881 9.30224 9.46798 8.83417 9.46798C8.3661 9.46798 7.98622 9.0881 7.98622 8.62003C7.98622 8.15196 8.3661 7.77208 8.83417 7.77208C9.30224 7.77208 9.68212 8.15196 9.68212 8.62003ZM6.29033 8.62003C6.29033 9.0881 5.91045 9.46798 5.44238 9.46798C4.97431 9.46798 4.59443 9.0881 4.59443 8.62003C4.59443 8.15196 4.97431 7.77208 5.44238 7.77208C5.91045 7.77208 6.29033 8.15196 6.29033 8.62003ZM13.0739 8.62003C13.0739 9.0881 12.694 9.46798 12.226 9.46798C11.7579 9.46798 11.378 9.0881 11.378 8.62003C11.378 8.15196 11.7579 7.77208 12.226 7.77208C12.694 7.77208 13.0739 8.15196 13.0739 8.62003Z" fill="white"/>
</svg>
